<mxfile host="app.diagrams.net" modified="2021-10-20T04:51:19.054Z" agent="5.0 (Windows NT 10.0; WOW64) AppleWebKit/537.36 (KHTML, like Gecko) SFive/80.0 Chrome/80.0.3987.123 Safari/537.36" etag="U4Q-UyaGfteXCRhAXuY6" version="15.5.6" type="github">
  <diagram id="_MfHzDupBLoGzcb5Q1OZ" name="Page-1">
    <mxGraphModel dx="880" dy="605" grid="1" gridSize="10" guides="1" tooltips="1" connect="1" arrows="1" fold="1" page="1" pageScale="1" pageWidth="850" pageHeight="1100" math="0" shadow="0">
      <root>
        <mxCell id="0" />
        <mxCell id="1" parent="0" />
        <mxCell id="g5-pz311yIQ96y4aVYir-79" value="" style="shape=table;html=1;whiteSpace=wrap;startSize=0;container=1;collapsible=0;childLayout=tableLayout;" vertex="1" parent="1">
          <mxGeometry x="160" y="180" width="540" height="327" as="geometry" />
        </mxCell>
        <mxCell id="g5-pz311yIQ96y4aVYir-135" style="shape=partialRectangle;html=1;whiteSpace=wrap;collapsible=0;dropTarget=0;pointerEvents=0;fillColor=none;top=0;left=0;bottom=0;right=0;points=[[0,0.5],[1,0.5]];portConstraint=eastwest;" vertex="1" parent="g5-pz311yIQ96y4aVYir-79">
          <mxGeometry width="540" height="66" as="geometry" />
        </mxCell>
        <mxCell id="g5-pz311yIQ96y4aVYir-136" value="" style="shape=partialRectangle;html=1;whiteSpace=wrap;connectable=0;fillColor=none;top=0;left=0;bottom=0;right=0;overflow=hidden;pointerEvents=1;dashed=1;dashPattern=1 2;strokeColor=none;sketch=1;" vertex="1" parent="g5-pz311yIQ96y4aVYir-135">
          <mxGeometry width="135" height="66" as="geometry">
            <mxRectangle width="135" height="66" as="alternateBounds" />
          </mxGeometry>
        </mxCell>
        <mxCell id="g5-pz311yIQ96y4aVYir-137" value="" style="shape=partialRectangle;html=1;whiteSpace=wrap;connectable=0;fillColor=none;top=0;left=0;bottom=0;right=0;overflow=hidden;pointerEvents=1;dashed=1;dashPattern=1 2;strokeColor=none;sketch=1;" vertex="1" parent="g5-pz311yIQ96y4aVYir-135">
          <mxGeometry x="135" width="105" height="66" as="geometry">
            <mxRectangle width="105" height="66" as="alternateBounds" />
          </mxGeometry>
        </mxCell>
        <mxCell id="g5-pz311yIQ96y4aVYir-138" style="shape=partialRectangle;html=1;whiteSpace=wrap;connectable=0;fillColor=#d5e8d4;top=0;left=0;bottom=0;right=0;overflow=hidden;pointerEvents=1;strokeColor=#82b366;" vertex="1" parent="g5-pz311yIQ96y4aVYir-135">
          <mxGeometry x="240" width="130" height="66" as="geometry">
            <mxRectangle width="130" height="66" as="alternateBounds" />
          </mxGeometry>
        </mxCell>
        <mxCell id="g5-pz311yIQ96y4aVYir-139" style="shape=partialRectangle;html=1;whiteSpace=wrap;connectable=0;fillColor=#fff2cc;top=0;left=0;bottom=0;right=0;overflow=hidden;pointerEvents=1;strokeColor=#d6b656;" vertex="1" parent="g5-pz311yIQ96y4aVYir-135">
          <mxGeometry x="370" width="170" height="66" as="geometry">
            <mxRectangle width="170" height="66" as="alternateBounds" />
          </mxGeometry>
        </mxCell>
        <mxCell id="g5-pz311yIQ96y4aVYir-129" style="shape=partialRectangle;html=1;whiteSpace=wrap;collapsible=0;dropTarget=0;pointerEvents=0;fillColor=none;top=0;left=0;bottom=0;right=0;points=[[0,0.5],[1,0.5]];portConstraint=eastwest;" vertex="1" parent="g5-pz311yIQ96y4aVYir-79">
          <mxGeometry y="66" width="540" height="66" as="geometry" />
        </mxCell>
        <mxCell id="g5-pz311yIQ96y4aVYir-130" value="" style="shape=partialRectangle;html=1;whiteSpace=wrap;connectable=0;fillColor=none;top=0;left=0;bottom=0;right=0;overflow=hidden;pointerEvents=1;dashed=1;dashPattern=1 2;strokeColor=default;sketch=1;" vertex="1" parent="g5-pz311yIQ96y4aVYir-129">
          <mxGeometry width="135" height="66" as="geometry">
            <mxRectangle width="135" height="66" as="alternateBounds" />
          </mxGeometry>
        </mxCell>
        <mxCell id="g5-pz311yIQ96y4aVYir-131" value="" style="shape=partialRectangle;html=1;whiteSpace=wrap;connectable=0;fillColor=none;top=0;left=0;bottom=0;right=0;overflow=hidden;pointerEvents=1;dashed=1;dashPattern=1 2;strokeColor=none;sketch=1;" vertex="1" parent="g5-pz311yIQ96y4aVYir-129">
          <mxGeometry x="135" width="105" height="66" as="geometry">
            <mxRectangle width="105" height="66" as="alternateBounds" />
          </mxGeometry>
        </mxCell>
        <mxCell id="g5-pz311yIQ96y4aVYir-132" value="&lt;b&gt;Need Attention&lt;/b&gt;&lt;br&gt;lifetime &amp;gt;= 1 thÃ¡ng" style="shape=partialRectangle;html=1;whiteSpace=wrap;connectable=0;fillColor=#f8cecc;top=0;left=0;bottom=0;right=0;overflow=hidden;pointerEvents=1;strokeColor=#b85450;" vertex="1" parent="g5-pz311yIQ96y4aVYir-129">
          <mxGeometry x="240" width="130" height="66" as="geometry">
            <mxRectangle width="130" height="66" as="alternateBounds" />
          </mxGeometry>
        </mxCell>
        <mxCell id="g5-pz311yIQ96y4aVYir-133" style="shape=partialRectangle;html=1;whiteSpace=wrap;connectable=0;fillColor=#d5e8d4;top=0;left=0;bottom=0;right=0;overflow=hidden;pointerEvents=1;strokeColor=#82b366;" vertex="1" parent="g5-pz311yIQ96y4aVYir-129">
          <mxGeometry x="370" width="170" height="66" as="geometry">
            <mxRectangle width="170" height="66" as="alternateBounds" />
          </mxGeometry>
        </mxCell>
        <mxCell id="g5-pz311yIQ96y4aVYir-95" style="shape=partialRectangle;html=1;whiteSpace=wrap;collapsible=0;dropTarget=0;pointerEvents=0;fillColor=none;top=0;left=0;bottom=0;right=0;points=[[0,0.5],[1,0.5]];portConstraint=eastwest;" vertex="1" parent="g5-pz311yIQ96y4aVYir-79">
          <mxGeometry y="132" width="540" height="66" as="geometry" />
        </mxCell>
        <mxCell id="g5-pz311yIQ96y4aVYir-96" style="shape=partialRectangle;html=1;whiteSpace=wrap;connectable=0;fillColor=none;top=0;left=0;bottom=0;right=0;overflow=hidden;pointerEvents=1;" vertex="1" parent="g5-pz311yIQ96y4aVYir-95">
          <mxGeometry width="135" height="66" as="geometry">
            <mxRectangle width="135" height="66" as="alternateBounds" />
          </mxGeometry>
        </mxCell>
        <mxCell id="g5-pz311yIQ96y4aVYir-125" style="shape=partialRectangle;html=1;whiteSpace=wrap;connectable=0;fillColor=none;top=0;left=0;bottom=0;right=0;overflow=hidden;pointerEvents=1;" vertex="1" parent="g5-pz311yIQ96y4aVYir-95">
          <mxGeometry x="135" width="105" height="66" as="geometry">
            <mxRectangle width="105" height="66" as="alternateBounds" />
          </mxGeometry>
        </mxCell>
        <mxCell id="g5-pz311yIQ96y4aVYir-97" style="shape=partialRectangle;html=1;whiteSpace=wrap;connectable=0;fillColor=none;top=0;left=0;bottom=0;right=0;overflow=hidden;pointerEvents=1;" vertex="1" parent="g5-pz311yIQ96y4aVYir-95">
          <mxGeometry x="240" width="130" height="66" as="geometry">
            <mxRectangle width="130" height="66" as="alternateBounds" />
          </mxGeometry>
        </mxCell>
        <mxCell id="g5-pz311yIQ96y4aVYir-98" style="shape=partialRectangle;html=1;whiteSpace=wrap;connectable=0;fillColor=none;top=0;left=0;bottom=0;right=0;overflow=hidden;pointerEvents=1;" vertex="1" parent="g5-pz311yIQ96y4aVYir-95">
          <mxGeometry x="370" width="170" height="66" as="geometry">
            <mxRectangle width="170" height="66" as="alternateBounds" />
          </mxGeometry>
        </mxCell>
        <mxCell id="g5-pz311yIQ96y4aVYir-80" value="" style="shape=partialRectangle;html=1;whiteSpace=wrap;collapsible=0;dropTarget=0;pointerEvents=0;fillColor=none;top=0;left=0;bottom=0;right=0;points=[[0,0.5],[1,0.5]];portConstraint=eastwest;" vertex="1" parent="g5-pz311yIQ96y4aVYir-79">
          <mxGeometry y="198" width="540" height="63" as="geometry" />
        </mxCell>
        <mxCell id="g5-pz311yIQ96y4aVYir-92" style="shape=partialRectangle;html=1;whiteSpace=wrap;connectable=0;fillColor=none;top=0;left=0;bottom=0;right=0;overflow=hidden;pointerEvents=1;" vertex="1" parent="g5-pz311yIQ96y4aVYir-80">
          <mxGeometry width="135" height="63" as="geometry">
            <mxRectangle width="135" height="63" as="alternateBounds" />
          </mxGeometry>
        </mxCell>
        <mxCell id="g5-pz311yIQ96y4aVYir-126" style="shape=partialRectangle;html=1;whiteSpace=wrap;connectable=0;fillColor=none;top=0;left=0;bottom=0;right=0;overflow=hidden;pointerEvents=1;" vertex="1" parent="g5-pz311yIQ96y4aVYir-80">
          <mxGeometry x="135" width="105" height="63" as="geometry">
            <mxRectangle width="105" height="63" as="alternateBounds" />
          </mxGeometry>
        </mxCell>
        <mxCell id="g5-pz311yIQ96y4aVYir-81" value="" style="shape=partialRectangle;html=1;whiteSpace=wrap;connectable=0;fillColor=none;top=0;left=0;bottom=0;right=0;overflow=hidden;pointerEvents=1;" vertex="1" parent="g5-pz311yIQ96y4aVYir-80">
          <mxGeometry x="240" width="130" height="63" as="geometry">
            <mxRectangle width="130" height="63" as="alternateBounds" />
          </mxGeometry>
        </mxCell>
        <mxCell id="g5-pz311yIQ96y4aVYir-82" value="" style="shape=partialRectangle;html=1;whiteSpace=wrap;connectable=0;fillColor=none;top=0;left=0;bottom=0;right=0;overflow=hidden;pointerEvents=1;" vertex="1" parent="g5-pz311yIQ96y4aVYir-80">
          <mxGeometry x="370" width="170" height="63" as="geometry">
            <mxRectangle width="170" height="63" as="alternateBounds" />
          </mxGeometry>
        </mxCell>
        <mxCell id="g5-pz311yIQ96y4aVYir-84" value="" style="shape=partialRectangle;html=1;whiteSpace=wrap;collapsible=0;dropTarget=0;pointerEvents=0;fillColor=none;top=0;left=0;bottom=0;right=0;points=[[0,0.5],[1,0.5]];portConstraint=eastwest;" vertex="1" parent="g5-pz311yIQ96y4aVYir-79">
          <mxGeometry y="261" width="540" height="66" as="geometry" />
        </mxCell>
        <mxCell id="g5-pz311yIQ96y4aVYir-93" style="shape=partialRectangle;html=1;whiteSpace=wrap;connectable=0;fillColor=none;top=0;left=0;bottom=0;right=0;overflow=hidden;pointerEvents=1;" vertex="1" parent="g5-pz311yIQ96y4aVYir-84">
          <mxGeometry width="135" height="66" as="geometry">
            <mxRectangle width="135" height="66" as="alternateBounds" />
          </mxGeometry>
        </mxCell>
        <mxCell id="g5-pz311yIQ96y4aVYir-127" style="shape=partialRectangle;html=1;whiteSpace=wrap;connectable=0;fillColor=none;top=0;left=0;bottom=0;right=0;overflow=hidden;pointerEvents=1;" vertex="1" parent="g5-pz311yIQ96y4aVYir-84">
          <mxGeometry x="135" width="105" height="66" as="geometry">
            <mxRectangle width="105" height="66" as="alternateBounds" />
          </mxGeometry>
        </mxCell>
        <mxCell id="g5-pz311yIQ96y4aVYir-85" value="" style="shape=partialRectangle;html=1;whiteSpace=wrap;connectable=0;fillColor=none;top=0;left=0;bottom=0;right=0;overflow=hidden;pointerEvents=1;" vertex="1" parent="g5-pz311yIQ96y4aVYir-84">
          <mxGeometry x="240" width="130" height="66" as="geometry">
            <mxRectangle width="130" height="66" as="alternateBounds" />
          </mxGeometry>
        </mxCell>
        <mxCell id="g5-pz311yIQ96y4aVYir-86" value="" style="shape=partialRectangle;html=1;whiteSpace=wrap;connectable=0;fillColor=none;top=0;left=0;bottom=0;right=0;overflow=hidden;pointerEvents=1;" vertex="1" parent="g5-pz311yIQ96y4aVYir-84">
          <mxGeometry x="370" width="170" height="66" as="geometry">
            <mxRectangle width="170" height="66" as="alternateBounds" />
          </mxGeometry>
        </mxCell>
        <mxCell id="g5-pz311yIQ96y4aVYir-164" value="" style="endArrow=none;html=1;rounded=0;exitX=0;exitY=0.019;exitDx=0;exitDy=0;exitPerimeter=0;entryX=0.994;entryY=-0.019;entryDx=0;entryDy=0;entryPerimeter=0;" edge="1" parent="g5-pz311yIQ96y4aVYir-79" source="g5-pz311yIQ96y4aVYir-84" target="g5-pz311yIQ96y4aVYir-84">
          <mxGeometry width="50" height="50" relative="1" as="geometry">
            <mxPoint x="240" y="110" as="sourcePoint" />
            <mxPoint x="290" y="60" as="targetPoint" />
          </mxGeometry>
        </mxCell>
        <mxCell id="g5-pz311yIQ96y4aVYir-147" value="Frequency&amp;nbsp;&lt;br&gt;(sá» ÄÆ¡n/thÃ¡ng)" style="text;html=1;strokeColor=none;fillColor=none;align=center;verticalAlign=middle;whiteSpace=wrap;rounded=0;" vertex="1" parent="1">
          <mxGeometry x="70" y="120" width="100" height="30" as="geometry" />
        </mxCell>
        <mxCell id="g5-pz311yIQ96y4aVYir-148" value="Recency &lt;br&gt;(ngÃ y)" style="text;html=1;align=center;verticalAlign=middle;resizable=0;points=[];autosize=1;strokeColor=none;fillColor=none;" vertex="1" parent="1">
          <mxGeometry x="720" y="545" width="60" height="30" as="geometry" />
        </mxCell>
        <mxCell id="g5-pz311yIQ96y4aVYir-150" value="" style="group" vertex="1" connectable="0" parent="1">
          <mxGeometry x="80" y="600" width="480" as="geometry" />
        </mxCell>
        <mxCell id="g5-pz311yIQ96y4aVYir-146" value="" style="endArrow=classic;html=1;rounded=0;" edge="1" parent="g5-pz311yIQ96y4aVYir-150">
          <mxGeometry width="50" height="50" relative="1" as="geometry">
            <mxPoint x="40" y="-60" as="sourcePoint" />
            <mxPoint x="40" y="-440" as="targetPoint" />
          </mxGeometry>
        </mxCell>
        <mxCell id="g5-pz311yIQ96y4aVYir-160" value="1" style="text;html=1;strokeColor=none;fillColor=none;align=center;verticalAlign=middle;whiteSpace=wrap;rounded=0;" vertex="1" parent="1">
          <mxGeometry x="590" y="507" width="60" height="30" as="geometry" />
        </mxCell>
        <mxCell id="g5-pz311yIQ96y4aVYir-161" value="2" style="text;html=1;strokeColor=none;fillColor=none;align=center;verticalAlign=middle;whiteSpace=wrap;rounded=0;" vertex="1" parent="1">
          <mxGeometry x="440" y="507" width="60" height="30" as="geometry" />
        </mxCell>
        <mxCell id="g5-pz311yIQ96y4aVYir-162" value="3" style="text;html=1;strokeColor=none;fillColor=none;align=center;verticalAlign=middle;whiteSpace=wrap;rounded=0;" vertex="1" parent="1">
          <mxGeometry x="320" y="507" width="60" height="30" as="geometry" />
        </mxCell>
        <mxCell id="g5-pz311yIQ96y4aVYir-163" value="4" style="text;html=1;strokeColor=none;fillColor=none;align=center;verticalAlign=middle;whiteSpace=wrap;rounded=0;" vertex="1" parent="1">
          <mxGeometry x="190" y="507" width="60" height="30" as="geometry" />
        </mxCell>
        <mxCell id="g5-pz311yIQ96y4aVYir-166" value="&lt;b&gt;Champions&lt;/b&gt;&lt;br&gt;lifetime &amp;gt;= 12m" style="text;html=1;strokeColor=none;fillColor=none;align=center;verticalAlign=middle;whiteSpace=wrap;rounded=0;" vertex="1" parent="1">
          <mxGeometry x="560" y="195" width="110" height="30" as="geometry" />
        </mxCell>
        <mxCell id="g5-pz311yIQ96y4aVYir-167" value="&lt;b&gt;Loyal cus&lt;/b&gt;&lt;br&gt;lifetime &amp;gt;= 6m" style="text;html=1;strokeColor=none;fillColor=none;align=center;verticalAlign=middle;whiteSpace=wrap;rounded=0;" vertex="1" parent="1">
          <mxGeometry x="410" y="195" width="100" height="40" as="geometry" />
        </mxCell>
        <mxCell id="g5-pz311yIQ96y4aVYir-168" value="&lt;b&gt;Loyal cus&lt;/b&gt;&lt;br&gt;lifetime &amp;gt;= 6m" style="text;html=1;strokeColor=none;fillColor=none;align=center;verticalAlign=middle;whiteSpace=wrap;rounded=0;" vertex="1" parent="1">
          <mxGeometry x="560" y="255" width="100" height="40" as="geometry" />
        </mxCell>
        <mxCell id="g5-pz311yIQ96y4aVYir-174" value="" style="group" vertex="1" connectable="0" parent="1">
          <mxGeometry x="50" y="195" width="60" height="295" as="geometry" />
        </mxCell>
        <mxCell id="g5-pz311yIQ96y4aVYir-149" value="&amp;gt;1000ÄÆ¡n /m" style="text;html=1;strokeColor=none;fillColor=none;align=center;verticalAlign=middle;whiteSpace=wrap;rounded=0;" vertex="1" parent="g5-pz311yIQ96y4aVYir-174">
          <mxGeometry width="60" height="30" as="geometry" />
        </mxCell>
        <mxCell id="g5-pz311yIQ96y4aVYir-169" value="300-1000ÄÆ¡n /m" style="text;html=1;strokeColor=none;fillColor=none;align=center;verticalAlign=middle;whiteSpace=wrap;rounded=0;" vertex="1" parent="g5-pz311yIQ96y4aVYir-174">
          <mxGeometry y="74" width="60" height="30" as="geometry" />
        </mxCell>
        <mxCell id="g5-pz311yIQ96y4aVYir-170" value="50-299 ÄÆ¡n/m" style="text;html=1;strokeColor=none;fillColor=none;align=center;verticalAlign=middle;whiteSpace=wrap;rounded=0;" vertex="1" parent="g5-pz311yIQ96y4aVYir-174">
          <mxGeometry y="135" width="60" height="30" as="geometry" />
        </mxCell>
        <mxCell id="g5-pz311yIQ96y4aVYir-171" value="10-50 ÄÆ¡n/m" style="text;html=1;strokeColor=none;fillColor=none;align=center;verticalAlign=middle;whiteSpace=wrap;rounded=0;" vertex="1" parent="g5-pz311yIQ96y4aVYir-174">
          <mxGeometry y="205" width="60" height="30" as="geometry" />
        </mxCell>
        <mxCell id="g5-pz311yIQ96y4aVYir-172" value="&amp;lt;10 ÄÆ¡n/m" style="text;html=1;strokeColor=none;fillColor=none;align=center;verticalAlign=middle;whiteSpace=wrap;rounded=0;" vertex="1" parent="g5-pz311yIQ96y4aVYir-174">
          <mxGeometry y="265" width="60" height="30" as="geometry" />
        </mxCell>
        <mxCell id="g5-pz311yIQ96y4aVYir-179" value="" style="endArrow=classic;html=1;rounded=0;" edge="1" parent="1" target="g5-pz311yIQ96y4aVYir-180">
          <mxGeometry width="50" height="50" relative="1" as="geometry">
            <mxPoint x="740" y="540" as="sourcePoint" />
            <mxPoint x="740" y="160" as="targetPoint" />
          </mxGeometry>
        </mxCell>
        <mxCell id="g5-pz311yIQ96y4aVYir-180" value="Lifietime (thÃ¡ng)" style="text;html=1;strokeColor=none;fillColor=none;align=center;verticalAlign=middle;whiteSpace=wrap;rounded=0;" vertex="1" parent="1">
          <mxGeometry x="710" y="145" width="60" height="30" as="geometry" />
        </mxCell>
        <mxCell id="g5-pz311yIQ96y4aVYir-181" value="" style="endArrow=none;html=1;rounded=0;" edge="1" parent="1">
          <mxGeometry width="50" height="50" relative="1" as="geometry">
            <mxPoint x="120" y="540" as="sourcePoint" />
            <mxPoint x="740" y="540" as="targetPoint" />
          </mxGeometry>
        </mxCell>
        <mxCell id="g5-pz311yIQ96y4aVYir-182" value="" style="group" vertex="1" connectable="0" parent="1">
          <mxGeometry x="200" y="550" width="450" height="30" as="geometry" />
        </mxCell>
        <mxCell id="g5-pz311yIQ96y4aVYir-175" value="&amp;gt;219 ngÃ y" style="text;html=1;strokeColor=none;fillColor=none;align=center;verticalAlign=middle;whiteSpace=wrap;rounded=0;" vertex="1" parent="g5-pz311yIQ96y4aVYir-182">
          <mxGeometry width="60" height="30" as="geometry" />
        </mxCell>
        <mxCell id="g5-pz311yIQ96y4aVYir-176" value="95-219 ngÃ y" style="text;html=1;strokeColor=none;fillColor=none;align=center;verticalAlign=middle;whiteSpace=wrap;rounded=0;" vertex="1" parent="g5-pz311yIQ96y4aVYir-182">
          <mxGeometry x="130" width="60" height="30" as="geometry" />
        </mxCell>
        <mxCell id="g5-pz311yIQ96y4aVYir-177" value="23-95 ngÃ y" style="text;html=1;strokeColor=none;fillColor=none;align=center;verticalAlign=middle;whiteSpace=wrap;rounded=0;" vertex="1" parent="g5-pz311yIQ96y4aVYir-182">
          <mxGeometry x="240" width="60" height="30" as="geometry" />
        </mxCell>
        <mxCell id="g5-pz311yIQ96y4aVYir-178" value="&amp;lt;23 ngÃ y" style="text;html=1;strokeColor=none;fillColor=none;align=center;verticalAlign=middle;whiteSpace=wrap;rounded=0;" vertex="1" parent="g5-pz311yIQ96y4aVYir-182">
          <mxGeometry x="390" width="60" height="30" as="geometry" />
        </mxCell>
        <mxCell id="g5-pz311yIQ96y4aVYir-183" value="" style="group" vertex="1" connectable="0" parent="1">
          <mxGeometry x="100" y="190" width="60" height="300" as="geometry" />
        </mxCell>
        <mxCell id="g5-pz311yIQ96y4aVYir-151" value="1" style="text;html=1;strokeColor=none;fillColor=none;align=center;verticalAlign=middle;whiteSpace=wrap;rounded=0;" vertex="1" parent="g5-pz311yIQ96y4aVYir-183">
          <mxGeometry width="60" height="35" as="geometry" />
        </mxCell>
        <mxCell id="g5-pz311yIQ96y4aVYir-156" value="2" style="text;html=1;strokeColor=none;fillColor=none;align=center;verticalAlign=middle;whiteSpace=wrap;rounded=0;" vertex="1" parent="g5-pz311yIQ96y4aVYir-183">
          <mxGeometry y="80" width="60" height="30" as="geometry" />
        </mxCell>
        <mxCell id="g5-pz311yIQ96y4aVYir-157" value="3" style="text;html=1;strokeColor=none;fillColor=none;align=center;verticalAlign=middle;whiteSpace=wrap;rounded=0;" vertex="1" parent="g5-pz311yIQ96y4aVYir-183">
          <mxGeometry y="138.5" width="60" height="30" as="geometry" />
        </mxCell>
        <mxCell id="g5-pz311yIQ96y4aVYir-158" value="4" style="text;html=1;strokeColor=none;fillColor=none;align=center;verticalAlign=middle;whiteSpace=wrap;rounded=0;" vertex="1" parent="g5-pz311yIQ96y4aVYir-183">
          <mxGeometry y="210" width="60" height="30" as="geometry" />
        </mxCell>
        <mxCell id="g5-pz311yIQ96y4aVYir-159" value="5" style="text;html=1;strokeColor=none;fillColor=none;align=center;verticalAlign=middle;whiteSpace=wrap;rounded=0;" vertex="1" parent="g5-pz311yIQ96y4aVYir-183">
          <mxGeometry y="270" width="60" height="30" as="geometry" />
        </mxCell>
        <mxCell id="g5-pz311yIQ96y4aVYir-184" value="" style="group" vertex="1" connectable="0" parent="1">
          <mxGeometry x="690" y="190" width="60" height="300" as="geometry" />
        </mxCell>
        <mxCell id="g5-pz311yIQ96y4aVYir-185" value="1" style="text;html=1;strokeColor=none;fillColor=none;align=center;verticalAlign=middle;whiteSpace=wrap;rounded=0;" vertex="1" parent="g5-pz311yIQ96y4aVYir-184">
          <mxGeometry width="60" height="35" as="geometry" />
        </mxCell>
        <mxCell id="g5-pz311yIQ96y4aVYir-186" value="2" style="text;html=1;strokeColor=none;fillColor=none;align=center;verticalAlign=middle;whiteSpace=wrap;rounded=0;" vertex="1" parent="g5-pz311yIQ96y4aVYir-184">
          <mxGeometry y="80" width="60" height="30" as="geometry" />
        </mxCell>
        <mxCell id="g5-pz311yIQ96y4aVYir-187" value="3" style="text;html=1;strokeColor=none;fillColor=none;align=center;verticalAlign=middle;whiteSpace=wrap;rounded=0;" vertex="1" parent="g5-pz311yIQ96y4aVYir-184">
          <mxGeometry y="138.5" width="60" height="30" as="geometry" />
        </mxCell>
        <mxCell id="g5-pz311yIQ96y4aVYir-188" value="4" style="text;html=1;strokeColor=none;fillColor=none;align=center;verticalAlign=middle;whiteSpace=wrap;rounded=0;" vertex="1" parent="g5-pz311yIQ96y4aVYir-184">
          <mxGeometry y="210" width="60" height="30" as="geometry" />
        </mxCell>
        <mxCell id="g5-pz311yIQ96y4aVYir-189" value="5" style="text;html=1;strokeColor=none;fillColor=none;align=center;verticalAlign=middle;whiteSpace=wrap;rounded=0;" vertex="1" parent="g5-pz311yIQ96y4aVYir-184">
          <mxGeometry y="270" width="60" height="30" as="geometry" />
        </mxCell>
        <mxCell id="g5-pz311yIQ96y4aVYir-190" value="" style="group" vertex="1" connectable="0" parent="1">
          <mxGeometry x="750" y="196" width="60" height="295" as="geometry" />
        </mxCell>
        <mxCell id="g5-pz311yIQ96y4aVYir-191" value="&amp;gt;=12 thÃ¡ng" style="text;html=1;strokeColor=none;fillColor=none;align=center;verticalAlign=middle;whiteSpace=wrap;rounded=0;" vertex="1" parent="g5-pz311yIQ96y4aVYir-190">
          <mxGeometry width="60" height="30" as="geometry" />
        </mxCell>
        <mxCell id="g5-pz311yIQ96y4aVYir-192" value="6-11 thÃ¡ng" style="text;html=1;strokeColor=none;fillColor=none;align=center;verticalAlign=middle;whiteSpace=wrap;rounded=0;" vertex="1" parent="g5-pz311yIQ96y4aVYir-190">
          <mxGeometry y="74" width="60" height="30" as="geometry" />
        </mxCell>
        <mxCell id="g5-pz311yIQ96y4aVYir-193" value="3-5 thÃ¡ng" style="text;html=1;strokeColor=none;fillColor=none;align=center;verticalAlign=middle;whiteSpace=wrap;rounded=0;" vertex="1" parent="g5-pz311yIQ96y4aVYir-190">
          <mxGeometry y="135" width="60" height="30" as="geometry" />
        </mxCell>
        <mxCell id="g5-pz311yIQ96y4aVYir-194" value="1-2 thÃ¡ng" style="text;html=1;strokeColor=none;fillColor=none;align=center;verticalAlign=middle;whiteSpace=wrap;rounded=0;" vertex="1" parent="g5-pz311yIQ96y4aVYir-190">
          <mxGeometry y="205" width="60" height="30" as="geometry" />
        </mxCell>
      </root>
    </mxGraphModel>
  </diagram>
</mxfile>
